<svg width="24" height="24" viewBox="0 0 24 24" fill="none" xmlns="http://www.w3.org/2000/svg">
<path fill-rule="evenodd" clip-rule="evenodd" d="M20.25 5.25C20.6642 5.25 21 5.58579 21 6V10.5C21 10.9142 20.6642 11.25 20.25 11.25C19.8358 11.25 19.5 10.9142 19.5 10.5V6C19.5 5.58579 19.8358 5.25 20.25 5.25Z" fill="black" fill-opacity="0.9"/>
<path fill-rule="evenodd" clip-rule="evenodd" d="M17.25 8.25C17.25 7.83579 17.5858 7.5 18 7.5H22.5C22.9142 7.5 23.25 7.83579 23.25 8.25C23.25 8.66421 22.9142 9 22.5 9H18C17.5858 9 17.25 8.66421 17.25 8.25Z" fill="black" fill-opacity="0.9"/>
<path fill-rule="evenodd" clip-rule="evenodd" d="M15.75 1.5C16.1642 1.5 16.5 1.83579 16.5 2.25V5.25C16.5 5.66421 16.1642 6 15.75 6C15.3358 6 15 5.66421 15 5.25V2.25C15 1.83579 15.3358 1.5 15.75 1.5Z" fill="black" fill-opacity="0.9"/>
<path fill-rule="evenodd" clip-rule="evenodd" d="M13.5 3.75C13.5 3.33579 13.8358 3 14.25 3H17.25C17.6642 3 18 3.33579 18 3.75C18 4.16421 17.6642 4.5 17.25 4.5H14.25C13.8358 4.5 13.5 4.16421 13.5 3.75Z" fill="black" fill-opacity="0.9"/>
<path fill-rule="evenodd" clip-rule="evenodd" d="M10.2246 3.15456C10.4159 3.34623 10.489 3.62613 10.4159 3.88688C10.0389 5.2312 10.0266 6.65163 10.3801 8.0023C10.7336 9.35297 11.4403 10.5852 12.4275 11.5724C13.4148 12.5597 14.647 13.2664 15.9977 13.6199C17.3484 13.9734 18.7688 13.9611 20.1131 13.5841L20.3156 14.3062L21.0382 14.5074C20.5989 16.0853 19.754 17.5207 18.5874 18.6705C17.4208 19.8203 15.9733 20.6444 14.3891 21.0607C12.8049 21.477 11.1393 21.4709 9.55817 21.0432C7.97703 20.6154 6.53557 19.7809 5.37734 18.6226C4.21912 17.4644 3.38457 16.023 2.9568 14.4418C2.52904 12.8607 2.52301 11.1951 2.9393 9.61088C3.35558 8.02669 4.17967 6.57921 5.32947 5.41262C6.47926 4.24603 7.91464 3.40105 9.49263 2.96184C9.75352 2.88923 10.0333 2.96289 10.2246 3.15456ZM19.1519 15.3038C17.974 15.4512 16.7745 15.3737 15.6179 15.071C14.0096 14.6501 12.5424 13.8086 11.3669 12.6331C10.1914 11.4576 9.34993 9.99037 8.92898 8.38212C8.62625 7.22553 8.54884 6.02597 8.69619 4.84806C7.84238 5.2436 7.06316 5.79048 6.39779 6.46556C5.43196 7.4455 4.73973 8.66138 4.39004 9.9921C4.04036 11.3228 4.04543 12.7219 4.40475 14.0501C4.76407 15.3782 5.4651 16.5891 6.438 17.562C7.41091 18.5349 8.62174 19.2359 9.9499 19.5952C11.278 19.9546 12.6772 19.9596 14.0079 19.6099C15.3386 19.2603 16.5545 18.568 17.5344 17.6022C18.2095 16.9368 18.7564 16.1576 19.1519 15.3038Z" fill="black" fill-opacity="0.9"/>
</svg>
