<svg width="24" height="24" viewBox="0 0 24 24" fill="none" xmlns="http://www.w3.org/2000/svg">
<path fill-rule="evenodd" clip-rule="evenodd" d="M3 16.125C3 15.7108 3.33579 15.375 3.75 15.375H12.75C13.1642 15.375 13.5 15.7108 13.5 16.125C13.5 16.5392 13.1642 16.875 12.75 16.875H3.75C3.33579 16.875 3 16.5392 3 16.125Z" fill="black" fill-opacity="0.9"/>
<path fill-rule="evenodd" clip-rule="evenodd" d="M15 16.125C15 15.7108 15.3358 15.375 15.75 15.375H20.25C20.6642 15.375 21 15.7108 21 16.125C21 16.5392 20.6642 16.875 20.25 16.875H15.75C15.3358 16.875 15 16.5392 15 16.125Z" fill="black" fill-opacity="0.9"/>
<path fill-rule="evenodd" clip-rule="evenodd" d="M3 7.875C3 7.46079 3.33579 7.125 3.75 7.125H6.75C7.16421 7.125 7.5 7.46079 7.5 7.875C7.5 8.28921 7.16421 8.625 6.75 8.625H3.75C3.33579 8.625 3 8.28921 3 7.875Z" fill="black" fill-opacity="0.9"/>
<path fill-rule="evenodd" clip-rule="evenodd" d="M9 7.875C9 7.46079 9.33579 7.125 9.75 7.125H20.25C20.6642 7.125 21 7.46079 21 7.875C21 8.28921 20.6642 8.625 20.25 8.625H9.75C9.33579 8.625 9 8.28921 9 7.875Z" fill="black" fill-opacity="0.9"/>
<path fill-rule="evenodd" clip-rule="evenodd" d="M9.75 4.875C10.1642 4.875 10.5 5.21079 10.5 5.625V10.125C10.5 10.5392 10.1642 10.875 9.75 10.875C9.33579 10.875 9 10.5392 9 10.125V5.625C9 5.21079 9.33579 4.875 9.75 4.875Z" fill="black" fill-opacity="0.9"/>
<path fill-rule="evenodd" clip-rule="evenodd" d="M15.75 13.125C16.1642 13.125 16.5 13.4608 16.5 13.875V18.375C16.5 18.7892 16.1642 19.125 15.75 19.125C15.3358 19.125 15 18.7892 15 18.375V13.875C15 13.4608 15.3358 13.125 15.75 13.125Z" fill="black" fill-opacity="0.9"/>
</svg>
