<svg width="32" height="32" viewBox="0 0 32 32" fill="none" xmlns="http://www.w3.org/2000/svg">
<path fill-rule="evenodd" clip-rule="evenodd" d="M3.97501 5.4625C4.52729 5.4625 4.97501 5.91022 4.97501 6.4625V11.4625H9.97501C10.5273 11.4625 10.975 11.9102 10.975 12.4625C10.975 13.0148 10.5273 13.4625 9.97501 13.4625H3.97501C3.42272 13.4625 2.97501 13.0148 2.97501 12.4625V6.4625C2.97501 5.91022 3.42272 5.4625 3.97501 5.4625Z" fill="black" fill-opacity="0.95"/>
<path fill-rule="evenodd" clip-rule="evenodd" d="M13.6617 4.23129C15.9897 3.76747 18.403 4.00454 20.5963 4.91251C22.7896 5.82047 24.6643 7.35854 25.9833 9.33214C27.3023 11.3057 28.0064 13.6262 28.0064 16C28.0064 18.3738 27.3023 20.6943 25.9833 22.6679C24.6643 24.6415 22.7896 26.1795 20.5963 27.0875C18.403 27.9955 15.9897 28.2325 13.6617 27.7687C11.3336 27.3049 9.19545 26.161 7.51761 24.4818C7.12725 24.0911 7.1275 23.458 7.51819 23.0676C7.90887 22.6772 8.54204 22.6775 8.9324 23.0682C10.3306 24.4675 12.1124 25.4207 14.0525 25.8073C15.9925 26.1938 18.0036 25.9962 19.8313 25.2396C21.659 24.4829 23.2213 23.2012 24.3205 21.5565C25.4197 19.9119 26.0064 17.9782 26.0064 16C26.0064 14.0218 25.4197 12.0881 24.3205 10.4434C23.2213 8.79878 21.659 7.51706 19.8313 6.76042C18.0036 6.00379 15.9925 5.80623 14.0525 6.19274C12.1124 6.57926 10.3306 7.53247 8.9324 8.93182L8.93107 8.93315L4.68107 13.1706C4.28997 13.5606 3.65681 13.5597 3.26686 13.1686C2.87691 12.7775 2.87784 12.1443 3.26894 11.7544L7.51761 7.51818C7.51784 7.51796 7.51806 7.51773 7.51829 7.5175C9.19602 5.83866 11.3339 4.69505 13.6617 4.23129Z" fill="black" fill-opacity="0.95"/>
</svg>
