<svg width="32" height="32" viewBox="0 0 32 32" fill="none" xmlns="http://www.w3.org/2000/svg">
<path fill-rule="evenodd" clip-rule="evenodd" d="M16 5C9.92487 5 5 9.92487 5 16C5 22.0751 9.92487 27 16 27C22.0751 27 27 22.0751 27 16C27 9.92487 22.0751 5 16 5ZM3 16C3 8.8203 8.8203 3 16 3C23.1797 3 29 8.8203 29 16C29 23.1797 23.1797 29 16 29C8.8203 29 3 23.1797 3 16Z" fill="black" fill-opacity="0.95"/>
<path fill-rule="evenodd" clip-rule="evenodd" d="M16 11C13.7909 11 12 12.7909 12 15C12 17.2091 13.7909 19 16 19C18.2091 19 20 17.2091 20 15C20 12.7909 18.2091 11 16 11ZM10 15C10 11.6863 12.6863 9 16 9C19.3137 9 22 11.6863 22 15C22 18.3137 19.3137 21 16 21C12.6863 21 10 18.3137 10 15Z" fill="black" fill-opacity="0.95"/>
<path fill-rule="evenodd" clip-rule="evenodd" d="M16 20.9992C14.5226 20.9992 13.0741 21.4083 11.8151 22.1812C10.556 22.954 9.53546 24.0604 8.86667 25.3777C8.61666 25.8701 8.01477 26.0667 7.52231 25.8167C7.02986 25.5667 6.83332 24.9648 7.08334 24.4723C7.91933 22.8257 9.19495 21.4427 10.7688 20.4766C12.3427 19.5106 14.1533 18.9992 16 18.9992C17.8467 18.9992 19.6573 19.5106 21.2312 20.4766C22.8051 21.4427 24.0807 22.8257 24.9167 24.4723C25.1667 24.9648 24.9702 25.5667 24.4777 25.8167C23.9852 26.0667 23.3834 25.8701 23.1333 25.3777C22.4646 24.0604 21.4441 22.954 20.185 22.1812C18.9259 21.4083 17.4774 20.9992 16 20.9992Z" fill="black" fill-opacity="0.95"/>
</svg>
