<svg width="92" height="92" viewBox="0 0 92 92" fill="none" xmlns="http://www.w3.org/2000/svg">
<path fill-rule="evenodd" clip-rule="evenodd" d="M63.1773 20.0288C64.1308 20.6428 65.2025 20.1954 66.1771 20.2192C71.7666 20.357 76.8901 21.9649 81.4525 25.073C87.923 29.4815 91.337 35.7728 91.8903 43.5671C93.2619 62.8852 81.6602 80.2746 63.1749 86.3061C47.3404 91.4724 32.1256 89.8578 18.3728 80.343C3.86008 70.3026 -1.65829 55.8116 0.424424 38.5789C1.77736 27.3844 11.4773 18.5306 22.4884 17.493C25.8361 17.1774 29.1756 17.4113 32.4086 18.4798C32.0846 19.0676 31.474 19.0932 30.9242 19.2794C29.2609 19.8429 27.4611 20.0617 25.8466 21.1429C26.6083 21.4796 27.2381 21.3126 27.8529 21.2912C31.6066 21.1615 35.3102 21.3803 38.8742 22.7269C39.3101 22.8918 39.9143 22.8988 39.9255 23.4581C39.9403 24.2205 39.1958 24.0476 38.7406 24.1542C32.8056 25.5426 28.1636 28.8699 24.494 33.6466C24.292 33.9096 23.8971 34.3062 24.3495 34.6166C36.9665 27.8988 49.7633 24.9065 63.2667 31.8795C63.6052 31.3015 63.663 30.7131 63.4526 30.1523C62.2455 26.9369 60.2975 24.3489 57.1028 22.8651C56.7482 22.7006 56.2233 22.7403 56.2965 22.1655C56.3446 21.7875 56.6795 21.6069 57.0393 21.5132C58.5016 21.1331 59.9321 20.5871 61.4979 21.1113C62.2319 21.3568 63.0367 21.5192 64.0232 21.0549C63.5497 20.727 63.2843 20.4254 63.1773 20.0288ZM78.626 68.6151C79.6307 68.8904 79.8885 68.1543 80.235 67.6858C82.0768 65.1973 83.0541 62.2835 84.3439 59.5088C86.561 54.7381 87.1165 49.7987 86.5291 44.7177C85.619 36.8431 81.6479 30.9544 74.4213 27.5012C73.1669 26.9018 71.7922 26.0697 69.9617 26.4389C82.977 35.7268 87.3988 53.4374 78.626 68.6151Z" fill="#58AAD8" fill-opacity="0.5"/>
<path fill-rule="evenodd" clip-rule="evenodd" d="M63.1774 20.0288C63.284 20.4254 63.5498 20.727 64.0232 21.0559C63.0368 21.5202 62.2319 21.3579 61.498 21.1124C59.9322 20.5885 58.5021 21.1341 57.0393 21.5143C56.6795 21.6079 56.3446 21.7885 56.2966 22.1665C56.2237 22.741 56.7486 22.7013 57.1028 22.8662C60.2979 24.3499 62.2456 26.9376 63.4527 30.1534C63.6631 30.7141 63.6052 31.3022 63.2668 31.8805C49.7633 24.9075 36.9665 27.8999 24.3496 34.6176C23.8969 34.3072 24.2921 33.9106 24.4941 33.6476C28.1636 28.8706 32.8056 25.5436 38.7406 24.1553C39.1958 24.0487 39.9403 24.2215 39.9256 23.4592C39.9147 22.8995 39.3101 22.8924 38.8742 22.728C35.3102 21.3813 31.6067 21.1625 27.8529 21.2923C27.2382 21.3137 26.6083 21.4806 25.8467 21.1439C27.4612 20.0628 29.2609 19.8436 30.9242 19.2804C31.4741 19.0942 32.0846 19.0686 32.4087 18.4808C33.9355 18.7709 35.4263 18.3388 36.9325 18.2431C40.0567 18.0442 43.0285 18.5692 45.8995 20.1178C46.1667 18.9928 45.8862 18.0302 45.8234 17.0753C45.5818 13.4019 46.018 9.86768 47.8209 6.58807C50.2578 2.15472 55.1962 1.50771 58.3478 5.20953C59.3339 6.36784 59.2076 6.78656 57.74 7.24315C56.6852 7.57139 55.5889 7.80846 54.5867 8.25523C51.326 9.70987 49.0669 14.5619 49.9531 17.9979C50.0797 18.4896 50.2746 18.7326 50.7838 18.559C54.6035 17.2559 58.1338 18.4531 61.6456 19.8096C62.1418 20.0004 62.6387 20.1501 63.1774 20.0288Z" fill="#58AAD8"/>
<path fill-rule="evenodd" clip-rule="evenodd" d="M78.626 68.6151C87.3991 53.4374 82.977 35.7268 69.9613 26.4386C71.7922 26.0696 73.1666 26.9015 74.421 27.5008C81.6475 30.954 85.619 36.843 86.5287 44.7173C87.1161 49.798 86.5606 54.7374 84.3436 59.5085C83.0538 62.2831 82.0764 65.1973 80.2346 67.6854C79.8881 68.1543 79.6307 68.8903 78.626 68.6151Z" fill="white"/>
</svg>
